<svg xmlns="http://www.w3.org/2000/svg" viewBox="0 0 1677 832" preserveAspectRatio="xMidYMid" width="1677" height="832" xmlns:xlink="http://www.w3.org/1999/xlink" style="shape-rendering:auto;display:block;background-position-x:0%;background-position-y:0%;background-size:auto;background-origin:padding-box;background-clip:border-box;background:scroll rgb(153, 153, 153) none  repeat;width:1677px;height:832px;;animation:none"><g><linearGradient gradientUnits="objectBoundingBox" y2="0" y1="0" x2="0.5" x1="0" id="lg-0.8190070014093828"><stop offset="0" stop-color="#ffef00"></stop>

  
<stop offset="1" stop-color="#ff9500"></stop></linearGradient>
<path opacity="0.9" fill="url(#lg-0.8190070014093828)" d="M -798.656 832 Q -732.007 642.037 -677.489 452.455 T -325.848 110.063 T 221.846 -161.661 T 911.98 -336.118 T 1677 -396.232 T 2442.02 -336.118 T 3132.15 -161.661 T 3679.85 110.063 T 4031.49 452.455 T 4152.66 832" style="fill:url('#lg-0.8190070014093828');opacity:0.9;;animation:none"></path>
<path opacity="0.9" fill="url(#lg-0.8190070014093828)" d="M -551.09 832 Q -481.74 643.917 -416.72 453.928 T -29.8162 121.457 T 562.955 -125.312 T 1290.1 -256.615 T 2063.9 -256.615 T 2791.05 -125.312 T 3383.82 121.457 T 3770.72 453.928 T 3905.09 832" style="fill:url('#lg-0.8190070014093828');opacity:0.9;;animation:none"></path>
<path opacity="0.9" fill="url(#lg-0.8190070014093828)" d="M -303.525 832 Q -209.773 647.86 -152.766 455.981 T 276.558 137.207 T 919.086 -75.791 T 1677 -150.586 T 2434.91 -75.791 T 3077.44 137.207 T 3506.77 455.981 T 3657.52 832" style="fill:url('#lg-0.8190070014093828');opacity:0.9;;animation:none"></path>
<path opacity="0.9" fill="url(#lg-0.8190070014093828)" d="M -55.9591 832 Q 40.3898 645.748 115.658 458.963 T 596.518 159.81 T 1291.38 -6.20661 T 2062.62 -6.20661 T 2757.48 159.81 T 3238.34 458.963 T 3409.96 832" style="fill:url('#lg-0.8190070014093828');opacity:0.9;;animation:none"></path>
<path opacity="0.9" fill="url(#lg-0.8190070014093828)" d="M 191.606 832 Q 314.327 651.823 390.611 463.53 T 934.303 193.792 T 1677 95.0606 T 2419.7 193.792 T 2963.39 463.53 T 3162.39 832" style="fill:url('#lg-0.8190070014093828');opacity:0.9;;animation:none"></path>
<path opacity="0.9" fill="url(#lg-0.8190070014093828)" d="M 439.172 832 Q 561.071 652.449 675.576 471.032 T 1294.49 247.941 T 2059.51 247.941 T 2678.42 471.032 T 2914.83 832" style="fill:url('#lg-0.8190070014093828');opacity:0.9;;animation:none"></path>
<path opacity="0.9" fill="url(#lg-0.8190070014093828)" d="M 686.738 832 Q 794.186 659.862 976.779 484.603 T 1677 340.707 T 2377.22 484.603 T 2667.26 832" style="fill:url('#lg-0.8190070014093828');opacity:0.9;;animation:none"></path>
<path opacity="0.9" fill="url(#lg-0.8190070014093828)" d="M 934.303 832 Q 1134.96 661.927 1305.65 512.896 T 2048.35 512.896 T 2419.7 832" style="fill:url('#lg-0.8190070014093828');opacity:0.9;;animation:none"></path>
<path opacity="0.9" fill="url(#lg-0.8190070014093828)" d="M 1181.87 832 Q 1402.77 662.173 1677 586.354 T 2172.13 832" style="fill:url('#lg-0.8190070014093828');opacity:0.9;;animation:none"></path>
<path opacity="0.9" fill="url(#lg-0.8190070014093828)" d="M 1429.43 832 Q 1677 768.538 1924.57 832" style="fill:url('#lg-0.8190070014093828');opacity:0.9;;animation:none"></path>
<g></g></g><!-- [ldio] generated by https://loading.io --></svg>